<?xml version="1.0" standalone="no"?>
<!DOCTYPE svg PUBLIC "-//W3C//DTD SVG 20010904//EN"
 "http://www.w3.org/TR/2001/REC-SVG-20010904/DTD/svg10.dtd">
<svg version="1.0" xmlns="http://www.w3.org/2000/svg"
 width="496.000000pt" height="496.000000pt" viewBox="0 0 496.000000 496.000000"
 preserveAspectRatio="xMidYMid meet">
<metadata>
Created by potrace 1.14, written by Peter Selinger 2001-2017
</metadata>
<g transform="translate(0.000000,496.000000) scale(0.100000,-0.100000)"
fill="#000000" stroke="none">
<path d="M4440 3754 c-336 -113 -669 -354 -837 -608 -41 -62 -52 -73 -56 -56
-6 25 -29 26 -50 3 -8 -10 -34 -54 -56 -98 -31 -62 -40 -74 -41 -53 0 15 -5
30 -11 33 -18 12 -49 -27 -94 -118 -37 -75 -45 -86 -54 -70 -18 32 -43 2 -87
-101 -23 -54 -46 -102 -50 -106 -5 -5 -385 -11 -864 -12 l-855 -3 -70 -24
c-177 -59 -306 -164 -393 -318 -59 -106 -77 -181 -76 -328 1 -116 4 -138 28
-205 33 -88 120 -224 173 -270 67 -59 169 -119 249 -146 68 -23 96 -27 204
-28 139 -1 208 16 325 77 74 39 188 147 235 221 l35 55 350 1 351 0 42 -64
c80 -123 208 -219 357 -268 58 -19 91 -23 195 -22 136 0 181 10 291 63 173 84
305 247 354 441 23 89 17 271 -12 353 l-20 57 41 11 c64 16 140 41 148 48 4 3
4 12 -1 19 -6 10 -26 8 -95 -13 -49 -14 -93 -25 -100 -25 -6 0 -21 17 -32 38
-94 163 -288 297 -461 318 -40 5 -50 10 -46 22 4 8 -2 21 -11 28 -15 11 5 24
166 106 145 74 183 97 183 113 0 17 -6 20 -37 19 -36 -1 -34 1 58 57 197 122
274 181 464 357 338 313 445 463 368 516 -35 25 -94 19 -208 -20z"/>
<path d="M2650 3030 c-36 -36 -19 -70 35 -70 54 0 87 58 46 80 -30 16 -59 12
-81 -10z"/>
<path d="M686 3006 c-71 -19 -118 -70 -123 -133 -10 -114 88 -186 230 -169
l57 7 0 70 0 69 -50 0 c-43 0 -50 -3 -50 -20 0 -24 -35 -28 -44 -4 -20 52 20
94 90 94 l44 0 0 40 c0 34 -4 42 -26 50 -33 13 -68 12 -128 -4z"/>
<path d="M2050 3009 c-47 -14 -98 -65 -111 -111 -33 -124 105 -236 226 -184
25 10 36 10 67 -2 50 -20 68 -11 68 34 0 26 -5 37 -18 41 -15 4 -18 13 -14 61
3 47 0 63 -20 91 -42 63 -124 92 -198 70z m95 -100 c4 -5 4 -22 1 -35 -6 -21
-9 -24 -21 -14 -23 19 -48 -5 -34 -32 12 -23 6 -33 -16 -25 -21 9 -19 46 5 85
20 32 52 43 65 21z"/>
<path d="M2790 2865 l0 -155 55 0 55 0 0 155 0 155 -55 0 -55 0 0 -155z"/>
<path d="M2940 2865 l0 -155 55 0 55 0 0 155 0 155 -55 0 -55 0 0 -155z"/>
<path d="M964 2940 c-11 -4 -33 -22 -47 -40 -50 -59 -30 -167 34 -189 44 -15
59 -14 102 8 32 16 39 17 44 5 3 -8 19 -14 39 -14 l34 0 0 115 0 115 -34 0
c-19 0 -38 -5 -41 -10 -4 -7 -14 -5 -28 5 -23 16 -70 19 -103 5z m106 -103 c0
-27 -6 -36 -27 -46 -31 -14 -48 -2 -38 28 17 56 65 69 65 18z"/>
<path d="M1332 2930 c-28 -17 -33 -18 -38 -5 -4 10 -20 15 -45 15 l-39 0 0
-115 0 -115 60 0 59 0 3 80 c4 107 22 108 26 3 l3 -83 59 0 60 0 0 88 c1 79 2
85 15 68 10 -13 15 -44 15 -88 l0 -68 55 0 55 0 0 95 c0 88 -2 98 -25 120 -28
29 -65 32 -106 8 -26 -16 -29 -16 -47 0 -25 23 -70 21 -110 -3z"/>
<path d="M1740 2939 c-98 -39 -114 -165 -28 -219 25 -16 45 -20 83 -17 79 7
105 21 105 58 0 28 -2 31 -22 24 -44 -14 -98 -17 -98 -6 0 6 12 11 28 11 62 0
114 58 97 109 -13 43 -103 64 -165 40z m70 -74 c0 -16 -6 -25 -15 -25 -15 0
-21 31 -8 43 13 14 23 6 23 -18z"/>
<path d="M2320 2845 c0 -88 2 -98 25 -120 30 -31 76 -33 128 -5 32 18 38 18
43 5 4 -9 19 -15 40 -15 l34 0 0 115 0 115 -55 0 -55 0 0 -79 c0 -44 -4 -82
-8 -85 -22 -13 -35 16 -40 88 l-5 76 -53 0 -54 0 0 -95z"/>
<path d="M2630 2825 l0 -115 60 0 60 0 0 115 0 115 -60 0 -60 0 0 -115z"/>
</g>
</svg>
